<svg xmlns="http://www.w3.org/2000/svg" viewBox="0 0 64 64">
  <rect x="12" y="8" width="40" height="50" rx="3" fill="#334155"/>
  <rect x="8" y="52" width="48" height="6" rx="2" fill="#334155"/>
  <rect x="18" y="14" width="8" height="7" rx="1.5" fill="white"/>
  <rect x="30" y="14" width="8" height="7" rx="1.5" fill="white"/>
  <rect x="42" y="14" width="8" height="7" rx="1.5" fill="#38bdf8" opacity="0.7"/>
  <rect x="18" y="26" width="8" height="7" rx="1.5" fill="white"/>
  <rect x="30" y="26" width="8" height="7" rx="1.5" fill="#38bdf8" opacity="0.7"/>
  <rect x="42" y="26" width="8" height="7" rx="1.5" fill="white"/>
  <rect x="18" y="38" width="8" height="7" rx="1.5" fill="#38bdf8" opacity="0.7"/>
  <rect x="30" y="38" width="8" height="7" rx="1.5" fill="white"/>
  <rect x="42" y="38" width="8" height="7" rx="1.5" fill="white"/>
  <rect x="27" y="46" width="10" height="12" rx="2" fill="#0ea5e9"/>
</svg>
